<svg xmlns="http://www.w3.org/2000/svg" width="32" height="32" viewBox="0 0 32 32">
              <g class="nc-icon-wrapper">
                <rect x="2" y="7" width="28" height="18" rx="3" ry="3" fill="#fff" stroke-width="0"></rect>
                <path d="m27,7H5c-1.657,0-3,1.343-3,3v12c0,1.657,1.343,3,3,3h22c1.657,0,3-1.343,3-3v-12c0-1.657-1.343-3-3-3Zm2,15c0,1.103-.897,2-2,2H5c-1.103,0-2-.897-2-2v-12c0-1.103.897-2,2-2h22c1.103,0,2,.897,2,2v12Z" stroke-width="0" opacity=".15"></path>
                <path d="m27,8H5c-1.105,0-2,.895-2,2v1c0-1.105.895-2,2-2h22c1.105,0,2,.895,2,2v-1c0-1.105-.895-2-2-2Z" fill="#fff" opacity=".2" stroke-width="0"></path>
                <path d="m20.044,10h-8.087c-1.053,0-1.906.86-1.906,1.922v8.155c0,1.061.853,1.922,1.906,1.922h8.087c1.053,0,1.905-.861,1.905-1.922v-8.155c0-1.062-.852-1.922-1.905-1.922" fill="#1677ff" stroke-width="0"></path>
                <path d="m19.847,17.535c-.476-.161-1.115-.407-1.827-.666.427-.749.769-1.602.993-2.53h-2.345v-.852h2.873v-.476h-2.873v-1.42h-1.173c-.206,0-.206.205-.206.205v1.215h-2.906v.476h2.906v.852h-2.399v.475h4.653c-.17.592-.399,1.147-.67,1.652-1.51-.502-3.121-.91-4.133-.659-.647.161-1.064.448-1.309.749-1.124,1.379-.318,3.474,2.056,3.474,1.404,0,2.756-.789,3.804-2.09,1.563.758,4.658,2.059,4.658,2.059v-1.854s-.389-.031-2.102-.61m-6.581,1.693c-1.851,0-2.398-1.47-1.484-2.275.305-.272.863-.405,1.161-.434,1.1-.11,2.117.313,3.319.905-.844,1.111-1.92,1.805-2.996,1.805" fill="#fff" stroke-width="0"></path>
              </g>
            </svg>
