<svg xmlns="http://www.w3.org/2000/svg" width="512" height="512"><path d="M 34,390 33,391 30,391 29,392 26,392 25,393 23,393 22,394 19,394 18,395 12,395 11,396 8,396 7,395 0,395 0,399 22,399 23,398 27,398 28,397 31,397 32,396 33,396 34,395 35,395 35,394 36,393 36,391 35,390 Z" fill="#560000"/><path d="M 429,82 427,84 427,86 428,87 428,88 431,91 431,92 434,95 434,96 436,98 436,99 438,101 438,102 439,103 439,104 440,105 440,106 441,107 441,108 442,109 442,110 443,111 443,113 444,114 444,115 445,116 445,118 446,119 446,121 447,122 447,125 448,126 448,129 449,130 449,134 450,135 450,138 449,139 446,139 445,138 442,138 441,137 438,137 437,136 434,136 433,135 430,135 429,134 425,134 424,133 421,133 420,132 417,132 416,131 413,131 412,130 408,130 407,129 404,129 403,128 400,128 399,127 396,127 395,126 391,126 390,125 387,125 386,124 383,124 382,123 379,123 378,122 374,122 373,121 370,121 369,120 366,120 365,119 362,119 361,118 357,118 356,117 353,117 352,116 348,116 347,115 343,115 342,114 337,114 336,113 326,113 325,112 292,112 291,111 291,110 290,109 290,107 289,106 289,105 287,103 286,103 285,102 284,102 283,103 283,105 285,107 285,108 287,110 287,111 288,112 287,113 283,113 282,114 278,114 277,115 274,115 273,116 271,116 270,117 268,117 267,116 266,116 265,115 264,115 263,114 261,114 260,113 257,113 256,112 248,112 247,113 243,113 242,114 240,114 239,115 237,115 236,116 235,116 234,117 232,117 231,118 230,118 228,120 227,120 226,121 225,121 222,124 221,124 217,128 216,128 210,134 210,135 206,139 206,140 205,141 205,142 203,144 203,145 202,146 202,147 200,149 196,149 195,148 191,148 190,147 186,147 185,146 182,146 181,145 177,145 176,144 172,144 171,143 167,143 166,142 163,142 162,141 158,141 157,140 153,140 152,139 148,139 147,138 144,138 143,137 139,137 138,136 134,136 133,135 130,135 129,134 125,134 124,133 120,133 119,132 116,132 115,131 111,131 110,130 107,130 106,129 102,129 101,128 98,128 97,127 93,127 92,126 89,126 88,125 85,125 84,124 80,124 79,123 76,123 75,122 72,122 71,121 68,121 67,120 64,120 63,119 60,119 59,118 56,118 55,117 50,117 49,116 44,116 43,115 42,115 41,114 36,114 35,113 28,113 27,112 18,112 17,111 0,111 0,128 3,128 4,129 13,129 14,130 21,130 22,131 27,131 28,132 30,132 31,131 32,131 33,132 38,132 39,133 44,133 45,134 49,134 50,135 54,135 55,136 59,136 60,137 63,137 64,138 68,138 69,139 72,139 73,140 76,140 77,141 81,141 82,142 85,142 86,143 89,143 90,144 94,144 95,145 98,145 99,146 102,146 103,147 107,147 108,148 111,148 112,149 115,149 116,150 120,150 121,151 124,151 125,152 129,152 130,153 134,153 135,154 139,154 140,155 144,155 145,156 149,156 150,157 154,157 155,158 160,158 161,159 166,159 167,160 172,160 173,161 181,161 182,162 192,162 193,163 193,164 192,165 192,167 191,168 191,169 190,170 190,171 189,172 189,174 188,175 188,176 187,177 187,179 186,180 186,182 185,183 185,184 184,185 184,187 183,188 183,190 182,191 182,193 181,194 181,196 180,197 180,199 179,200 179,202 178,203 178,205 177,206 177,209 176,210 176,212 175,213 175,215 174,216 174,219 173,220 173,222 172,223 172,226 171,227 171,229 170,230 170,233 169,234 169,237 168,238 168,240 167,241 167,243 166,244 161,244 160,243 156,243 155,242 150,242 149,241 143,241 142,240 139,240 137,238 137,232 136,231 136,227 135,226 135,223 134,222 134,219 133,218 133,216 132,215 132,214 131,213 131,211 130,210 130,209 129,208 129,206 128,205 128,204 126,202 126,201 125,200 125,199 123,197 123,196 121,194 121,193 110,182 109,182 107,180 106,180 105,179 104,179 103,178 102,178 101,177 100,177 99,176 97,176 96,175 93,175 92,174 75,174 74,175 72,175 71,176 70,176 68,178 68,180 72,180 73,179 75,179 76,178 81,178 82,177 83,178 89,178 90,179 93,179 94,180 96,180 98,182 99,182 100,183 101,183 103,185 104,185 114,195 114,196 117,199 117,200 119,202 119,203 121,205 121,206 122,207 122,208 123,209 123,210 124,211 124,212 125,213 125,214 126,215 126,216 127,217 127,219 128,220 128,221 129,222 129,225 130,226 130,228 131,229 131,233 132,234 132,239 131,240 130,239 124,239 123,238 116,238 115,237 105,237 104,236 85,236 84,237 75,237 74,238 69,238 68,239 64,239 63,240 61,240 60,241 58,241 57,242 55,242 54,243 53,243 52,244 50,244 49,245 48,245 46,247 45,247 44,248 43,248 40,251 39,251 36,254 35,254 31,258 30,258 26,262 27,261 28,261 29,260 30,260 32,258 33,258 34,257 35,257 36,256 38,256 39,255 40,255 41,254 43,254 44,253 46,253 47,252 49,252 50,251 53,251 54,250 57,250 58,249 64,249 65,248 79,248 80,247 85,247 86,248 101,248 102,249 110,249 111,250 117,250 118,251 124,251 125,252 131,252 133,254 133,263 132,264 132,269 131,270 131,274 130,275 130,277 129,278 129,281 128,282 128,283 127,284 127,286 126,287 126,288 125,289 125,291 123,293 123,294 122,295 122,296 121,297 121,298 119,300 119,301 117,303 117,304 115,306 115,307 110,312 110,313 106,317 105,317 104,318 103,317 103,316 104,315 104,314 106,312 106,311 107,310 107,305 106,304 106,302 105,301 105,299 104,298 104,297 103,296 103,294 102,293 102,292 101,291 101,290 100,289 100,288 99,287 98,287 98,288 96,290 96,291 95,292 95,294 94,295 94,297 93,298 93,303 94,304 94,306 95,307 95,309 96,310 96,312 97,313 97,315 98,316 98,323 97,324 97,326 96,327 97,326 98,326 100,324 101,324 104,321 105,321 118,308 118,307 121,304 121,303 123,301 123,300 125,298 125,297 126,296 126,295 127,294 127,293 128,292 128,291 129,290 129,289 130,288 130,286 131,285 131,284 132,283 132,281 133,280 133,278 134,277 134,274 135,273 135,270 136,269 136,264 137,263 137,256 139,254 143,254 144,255 151,255 152,256 161,256 163,258 163,261 162,262 162,264 161,265 161,268 160,269 160,271 159,272 159,275 158,276 158,278 157,279 157,281 156,282 156,285 155,286 155,288 154,289 154,291 153,292 153,294 152,295 152,297 151,298 151,300 150,301 150,303 149,304 149,306 148,307 148,309 147,310 147,312 146,313 146,315 145,316 145,318 144,319 144,321 143,322 143,323 142,324 142,326 141,327 141,329 140,330 140,331 139,332 139,334 138,335 138,336 137,337 137,338 136,339 136,341 135,342 135,343 134,344 134,345 133,346 133,348 132,349 132,350 131,351 131,352 130,353 130,354 129,355 129,356 128,357 128,358 127,359 127,360 126,361 126,362 124,364 124,365 123,366 123,367 122,368 122,369 120,371 120,372 118,374 118,375 116,377 116,378 113,381 113,382 109,386 109,387 93,403 92,403 89,406 88,406 85,409 84,409 82,411 81,411 80,412 79,412 77,414 76,414 75,415 74,415 73,416 72,416 71,417 69,417 68,418 67,418 66,419 65,419 64,420 62,420 61,421 56,421 55,422 52,422 51,423 48,423 47,424 42,424 41,425 34,425 33,426 15,426 14,425 7,425 6,424 2,424 1,423 0,423 0,428 3,428 4,429 9,429 10,430 38,430 39,429 46,429 47,428 51,428 52,427 55,427 56,426 59,426 60,425 62,425 64,423 67,423 68,422 69,422 70,421 72,421 73,420 74,420 75,419 77,419 78,418 79,418 80,417 81,417 82,416 83,416 84,415 85,415 86,414 87,414 89,412 90,412 91,411 92,411 94,409 95,409 97,407 98,407 101,404 102,404 106,400 107,400 126,381 126,380 130,376 130,375 132,373 132,372 135,369 135,368 137,366 137,365 138,364 138,363 140,361 140,360 142,358 142,357 143,356 143,355 144,354 144,353 146,351 146,350 147,349 147,348 148,347 148,346 149,345 149,344 150,343 150,342 151,341 151,340 152,339 152,338 153,337 153,336 154,335 154,334 155,333 155,332 156,331 156,330 157,329 157,328 158,327 158,326 159,325 159,324 160,323 160,322 161,321 161,319 162,318 162,317 163,316 163,315 164,314 164,312 165,311 165,310 166,309 166,307 167,306 167,305 168,304 168,302 169,301 169,300 170,299 170,297 171,296 171,295 172,294 172,292 173,291 173,289 174,288 174,286 175,285 175,284 176,283 176,281 177,280 177,278 178,277 178,275 179,274 179,272 180,271 180,269 181,268 181,266 182,265 182,262 183,261 183,260 184,259 198,259 199,258 205,258 206,257 209,257 210,256 213,256 214,255 216,255 217,254 219,254 220,253 221,253 222,252 223,252 224,251 225,251 226,250 227,250 229,248 230,248 236,242 236,241 237,240 237,239 236,238 235,239 234,239 233,240 232,240 231,241 229,241 228,242 226,242 225,243 223,243 222,244 219,244 218,245 214,245 213,246 204,246 203,247 189,247 188,246 188,244 189,243 189,241 190,240 190,238 191,237 191,235 192,234 192,231 193,230 193,228 194,227 194,225 195,224 195,222 196,221 196,219 197,218 197,215 198,214 198,212 199,211 199,209 200,208 200,206 201,205 201,203 202,202 202,199 203,198 203,196 204,195 204,193 205,192 205,190 206,189 206,187 207,186 207,183 208,182 208,180 209,179 209,177 210,176 210,174 211,173 211,171 212,170 212,168 213,167 213,166 215,164 219,164 220,165 220,173 221,174 221,177 222,178 222,180 224,182 224,183 229,188 230,188 231,189 232,189 233,190 234,190 235,191 237,191 238,192 239,192 240,193 244,193 245,192 247,192 248,191 255,191 256,190 257,190 245,190 244,189 241,189 240,188 238,188 237,187 235,187 234,186 233,186 231,184 230,184 226,180 226,179 225,178 225,177 224,176 224,175 223,174 223,171 222,170 222,165 223,164 230,164 231,163 242,163 243,162 248,162 249,161 253,161 254,160 257,160 258,159 260,159 261,158 263,158 264,157 266,157 267,156 268,156 269,155 270,155 271,154 272,154 273,153 274,153 276,151 277,151 285,143 285,142 287,140 287,139 288,138 288,137 289,136 289,134 290,133 290,131 291,130 291,128 292,127 303,127 304,128 313,128 314,129 321,129 322,130 328,130 329,131 334,131 335,132 340,132 341,133 346,133 347,134 351,134 352,135 356,135 357,136 361,136 362,137 365,137 366,138 370,138 371,139 374,139 375,140 379,140 380,141 383,141 384,142 388,142 389,143 393,143 394,144 397,144 398,145 402,145 403,146 406,146 407,147 411,147 412,148 415,148 416,149 420,149 421,150 424,150 425,151 429,151 430,152 433,152 434,153 438,153 439,154 442,154 443,155 447,155 448,156 451,156 452,157 452,194 451,195 451,206 450,207 450,215 449,216 449,221 448,222 448,227 447,228 447,233 446,234 446,238 445,239 445,240 444,241 443,240 443,236 442,235 442,232 441,231 441,230 437,226 436,226 435,225 427,225 426,226 425,226 424,227 423,227 417,233 417,234 416,235 416,236 415,237 415,241 421,241 422,242 425,242 426,243 427,243 428,244 429,244 430,245 431,245 436,250 436,251 437,252 437,253 438,254 438,255 439,256 439,258 440,259 440,264 439,265 439,268 438,269 438,272 437,273 437,275 436,276 436,278 435,279 435,281 434,282 434,284 433,285 433,287 432,288 432,289 431,290 431,292 430,293 430,295 429,296 429,297 428,298 428,300 427,301 427,302 426,303 426,304 425,305 425,307 424,308 424,309 423,310 423,312 422,313 422,314 421,315 421,316 420,317 420,319 419,320 419,321 418,322 418,323 417,324 417,325 416,326 416,327 415,328 415,329 414,330 414,331 413,332 413,333 412,334 412,335 411,336 411,337 410,338 410,339 409,340 409,341 408,342 408,343 407,344 407,345 405,347 405,348 404,349 404,350 403,351 403,352 401,354 401,355 400,356 400,357 399,358 399,359 397,361 397,362 395,364 395,365 394,366 394,367 392,369 392,370 390,372 390,373 388,375 388,376 386,378 386,379 384,381 384,382 382,384 382,385 380,387 380,388 377,391 377,392 373,396 373,397 367,403 367,404 359,412 358,412 353,417 352,417 350,419 349,419 348,420 347,420 346,421 345,421 344,422 343,422 342,423 340,423 339,424 337,424 336,425 334,425 333,426 330,426 329,427 321,427 320,426 311,426 310,425 305,425 304,424 301,424 300,423 298,423 297,422 295,422 294,421 292,421 291,420 290,420 289,419 288,419 287,418 286,418 285,417 284,417 283,416 282,416 281,415 280,415 278,413 277,413 274,410 273,410 267,404 266,404 265,403 265,402 257,394 257,393 255,391 255,390 252,387 252,386 251,385 251,384 249,382 249,381 248,380 248,379 246,377 246,376 247,375 251,379 251,380 255,384 256,384 259,387 260,387 262,389 263,389 264,390 265,390 266,391 267,391 268,392 269,392 270,393 271,393 272,394 274,394 275,395 277,395 278,396 281,396 282,397 287,397 288,398 296,398 297,399 316,399 317,398 326,398 327,397 330,397 331,396 333,396 334,395 335,395 337,393 337,391 335,391 334,392 331,392 330,393 327,393 326,394 324,394 323,395 320,395 319,396 301,396 300,395 294,395 293,394 290,394 289,393 287,393 286,392 284,392 283,391 281,391 280,390 279,390 278,389 277,389 276,388 275,388 274,387 273,387 271,385 270,385 269,384 268,384 264,380 263,380 255,372 255,371 251,367 251,366 249,364 249,363 247,361 247,360 246,359 246,358 245,357 245,356 244,355 244,354 243,353 243,352 242,351 242,349 241,348 241,346 240,345 240,343 239,342 239,340 238,339 238,336 237,335 237,332 236,331 236,329 235,328 235,326 234,325 230,325 229,326 228,326 227,327 226,327 226,328 224,330 224,333 223,334 223,344 224,345 224,350 225,351 225,354 226,355 226,358 227,359 227,362 228,363 228,365 229,366 229,368 230,369 230,370 231,371 231,373 232,374 232,375 233,376 233,377 234,378 234,379 235,380 235,381 236,382 236,383 238,385 238,386 240,388 240,389 243,392 243,393 256,406 257,406 260,409 261,409 263,411 264,411 266,413 267,413 269,415 270,415 271,416 272,416 273,417 274,417 275,418 276,418 277,419 278,419 279,420 280,420 281,421 283,421 284,422 285,422 286,423 288,423 289,424 291,424 292,425 295,425 296,426 299,426 300,427 303,427 304,428 309,428 310,429 322,429 323,430 329,430 330,429 343,429 344,428 349,428 350,427 355,427 356,426 359,426 360,425 362,425 363,424 366,424 367,423 369,423 370,422 372,422 373,421 374,421 375,420 377,420 378,419 379,419 380,418 381,418 382,417 383,417 384,416 385,416 386,415 387,415 388,414 389,414 390,413 391,413 393,411 394,411 396,409 397,409 398,408 399,408 402,405 403,405 407,401 408,401 415,394 416,394 420,390 420,389 427,382 427,381 431,377 431,376 434,373 434,372 437,369 437,368 439,366 439,365 441,363 441,362 442,361 442,360 444,358 444,357 445,356 445,355 447,353 447,352 448,351 448,350 449,349 449,348 451,346 451,345 452,344 452,343 453,342 453,341 454,340 454,339 455,338 455,337 456,336 456,335 457,334 457,333 458,332 458,331 459,330 459,328 460,327 460,326 461,325 461,324 462,323 462,322 463,321 463,320 464,319 464,317 465,316 465,315 466,314 466,312 467,311 467,310 468,309 468,308 469,307 469,305 470,304 470,303 471,302 471,300 472,299 472,297 473,296 473,295 474,294 474,292 475,291 475,289 476,288 476,286 477,285 477,283 478,282 478,281 479,280 479,278 480,277 480,274 481,273 481,271 482,270 482,268 483,267 483,265 484,264 484,262 485,261 485,259 486,258 486,256 487,255 487,253 488,252 488,249 489,248 489,246 490,245 490,243 491,242 491,240 492,239 492,237 493,236 493,234 494,233 494,231 495,230 495,228 496,227 496,225 497,224 497,221 498,220 498,218 499,217 499,215 500,214 500,212 501,211 501,209 502,208 502,206 503,205 503,203 504,202 504,200 506,198 506,196 507,195 507,193 508,192 508,190 509,189 509,186 510,185 510,183 511,182 511,134 509,136 509,137 507,139 507,140 506,141 506,142 504,144 504,145 503,146 503,147 501,149 500,148 494,148 493,147 484,147 483,146 479,146 478,145 474,145 473,144 469,144 468,143 464,143 463,142 460,142 458,140 458,136 457,135 457,130 456,129 456,126 455,125 455,122 454,121 454,118 453,117 453,114 452,113 452,112 451,111 451,109 450,108 450,106 449,105 449,104 448,103 448,102 447,101 447,100 446,99 446,98 445,97 445,96 443,94 443,93 441,91 441,90 434,83 433,83 432,82 Z" fill="#560000"/><path d="M 462,160 462,176 461,177 461,193 460,194 460,203 459,204 459,210 458,211 458,217 457,218 457,223 456,224 456,228 455,229 455,233 454,234 454,238 453,239 453,242 452,243 452,246 451,247 451,250 450,251 450,254 449,255 449,258 448,259 448,261 447,262 447,265 446,266 446,268 445,269 445,272 444,273 444,275 443,276 443,278 442,279 442,281 441,282 441,284 440,285 440,287 439,288 439,290 438,291 438,293 437,294 437,295 436,296 436,298 435,299 435,301 434,302 434,303 433,304 433,306 432,307 432,309 431,310 431,311 430,312 430,313 429,314 429,316 428,317 428,318 427,319 427,320 426,321 426,323 425,324 425,325 424,326 424,327 423,328 423,329 422,330 422,331 421,332 421,333 420,334 420,336 419,337 419,338 418,339 418,340 417,341 417,342 415,344 415,345 414,346 414,347 413,348 413,349 412,350 412,351 411,352 411,353 409,355 409,356 408,357 408,358 407,359 407,360 405,362 405,363 404,364 404,365 402,367 402,368 400,370 400,371 398,373 398,374 395,377 395,378 393,380 393,381 389,385 389,386 385,390 385,391 365,411 364,411 360,415 359,415 356,418 355,418 353,420 352,420 350,422 349,422 348,423 347,423 350,423 351,422 354,422 355,421 358,421 359,420 361,420 362,419 364,419 365,418 367,418 368,417 369,417 370,416 371,416 372,415 373,415 374,414 375,414 376,413 377,413 378,412 379,412 380,411 381,411 383,409 384,409 386,407 387,407 389,405 390,405 393,402 394,402 411,385 411,384 415,380 415,379 417,377 417,376 420,373 420,372 422,370 422,369 423,368 423,367 425,365 425,364 426,363 426,362 427,361 427,360 428,359 428,358 429,357 429,356 430,355 430,354 431,353 431,352 432,351 432,350 433,349 433,348 434,347 434,346 435,345 435,343 436,342 436,341 437,340 437,339 438,338 438,336 439,335 439,334 440,333 440,331 441,330 441,329 442,328 442,326 443,325 443,324 444,323 444,321 445,320 445,318 446,317 446,315 447,314 447,312 448,311 448,309 449,308 449,306 450,305 450,303 451,302 451,300 452,299 452,297 453,296 453,294 454,293 454,291 455,290 455,288 456,287 456,284 457,283 457,281 458,280 458,278 459,277 459,274 460,273 460,271 461,270 461,267 462,266 462,263 463,262 463,260 464,259 464,256 465,255 465,252 466,251 466,249 467,248 467,245 468,244 468,242 469,241 469,238 470,237 470,234 471,233 471,231 472,230 472,227 473,226 473,224 474,223 474,220 475,219 475,217 476,216 476,214 477,213 477,210 478,209 478,207 479,206 479,203 480,202 480,200 481,199 481,197 482,196 482,194 483,193 483,191 484,190 484,187 485,186 485,184 486,183 486,182 487,181 487,179 488,178 488,176 489,175 489,173 490,172 490,171 491,170 491,168 492,167 492,166 493,165 493,164 490,164 489,163 481,163 480,162 473,162 472,161 466,161 465,160 Z" fill="#ff5454"/><path d="M 30,133 30,134 29,135 29,136 28,137 28,138 27,139 27,140 26,141 26,142 25,143 25,144 24,145 24,146 23,147 23,148 22,149 22,151 21,152 21,153 20,154 20,155 19,156 19,158 18,159 18,160 17,161 17,163 16,164 16,165 15,166 15,168 14,169 14,171 13,172 13,174 12,175 12,177 11,178 11,180 10,181 10,184 9,185 9,187 8,188 8,191 7,192 7,195 6,196 6,199 5,200 5,204 4,205 4,210 3,211 3,216 2,217 2,223 1,224 1,232 0,233 0,278 1,279 1,287 2,288 2,294 3,295 3,300 4,301 4,306 5,307 5,311 6,312 6,315 7,316 7,319 8,320 8,323 9,324 9,326 10,327 10,330 11,331 11,333 12,334 12,336 13,337 13,339 14,340 14,342 15,343 15,345 16,346 16,347 17,348 17,350 18,351 18,352 19,353 19,355 20,356 20,357 21,358 21,359 22,360 22,362 23,363 23,364 24,365 24,366 25,367 25,368 26,369 26,370 27,371 27,372 28,373 28,374 29,375 29,376 30,377 30,378 32,380 32,381 33,382 33,383 34,384 34,385 36,387 36,388 37,389 37,390 39,392 39,393 41,395 41,396 43,398 43,399 45,401 45,402 47,404 47,405 50,408 50,409 53,412 53,413 56,416 56,417 59,420 60,419 62,419 63,418 65,418 66,417 67,417 68,416 70,416 71,415 72,415 73,414 74,414 75,413 76,413 78,411 79,411 80,410 81,410 83,408 84,408 86,406 87,406 90,403 91,403 97,397 98,397 104,391 104,390 110,384 110,383 113,380 113,379 115,377 115,376 118,373 118,372 119,371 119,370 121,368 121,367 122,366 122,365 124,363 124,362 125,361 125,360 126,359 126,358 127,357 127,356 128,355 128,354 129,353 129,352 130,351 130,350 131,349 131,348 132,347 132,345 133,344 133,343 134,342 134,341 135,340 135,338 136,337 136,336 137,335 137,333 138,332 138,331 139,330 139,328 140,327 140,326 141,325 141,323 142,322 142,320 143,319 143,317 144,316 144,315 145,314 145,312 146,311 146,309 147,308 147,306 148,305 148,303 149,302 149,300 150,299 150,297 151,296 151,294 152,293 152,290 153,289 153,287 154,286 154,284 155,283 155,281 156,280 156,277 157,276 157,274 158,273 158,271 159,270 159,267 160,266 160,264 161,263 161,260 162,259 162,258 157,258 156,257 148,257 147,256 141,256 140,255 139,255 139,260 138,261 138,266 137,267 137,271 136,272 136,275 135,276 135,278 134,279 134,282 133,283 133,284 132,285 132,287 131,288 131,289 130,290 130,291 129,292 129,293 128,294 128,295 127,296 127,297 125,299 125,300 123,302 123,303 121,305 121,306 116,311 116,312 109,319 108,319 103,324 102,324 99,327 98,327 96,329 95,329 94,328 95,327 95,326 96,325 96,322 97,321 97,318 96,317 96,314 95,313 95,311 94,310 94,308 93,307 93,306 92,305 92,303 91,302 91,301 92,300 92,297 93,296 93,294 94,293 94,291 95,290 95,289 99,285 101,287 101,288 102,289 102,290 103,291 103,292 104,293 104,295 105,296 105,297 106,298 106,300 107,301 107,302 108,303 108,306 109,307 109,309 108,310 108,311 106,313 106,314 105,315 105,316 104,317 111,310 111,309 115,305 115,304 117,302 117,301 119,299 119,298 120,297 120,296 121,295 121,294 122,293 122,292 124,290 124,288 125,287 125,286 126,285 126,283 127,282 127,280 128,279 128,277 129,276 129,273 130,272 130,267 131,266 131,259 132,258 132,254 129,254 128,253 122,253 121,252 115,252 114,251 107,251 106,250 96,250 95,249 70,249 69,250 62,250 61,251 56,251 55,252 52,252 51,253 48,253 47,254 45,254 44,255 42,255 41,256 40,256 39,257 38,257 37,258 35,258 34,259 33,259 31,261 30,261 29,262 28,262 27,263 26,263 25,262 25,261 28,258 29,258 32,255 33,255 37,251 38,251 41,248 42,248 44,246 45,246 46,245 47,245 49,243 50,243 51,242 53,242 54,241 55,241 56,240 58,240 59,239 61,239 62,238 66,238 67,237 71,237 72,236 78,236 79,235 111,235 112,236 120,236 121,237 127,237 128,238 131,238 131,237 130,236 130,232 129,231 129,227 128,226 128,224 127,223 127,221 126,220 126,219 125,218 125,216 124,215 124,214 123,213 123,212 122,211 122,210 121,209 121,208 120,207 120,206 118,204 118,203 116,201 116,200 114,198 114,197 108,191 108,190 107,190 102,185 101,185 100,184 99,184 97,182 95,182 94,181 92,181 91,180 88,180 87,179 78,179 77,180 74,180 73,181 70,181 69,182 68,182 66,180 66,179 67,178 67,177 69,175 70,175 71,174 72,174 73,173 77,173 78,172 88,172 89,173 94,173 95,174 97,174 98,175 100,175 101,176 102,176 103,177 104,177 105,178 106,178 107,179 108,179 111,182 112,182 121,191 121,192 124,195 124,196 126,198 126,199 127,200 127,201 129,203 129,204 130,205 130,207 131,208 131,209 132,210 132,211 133,212 133,214 134,215 134,217 135,218 135,220 136,221 136,224 137,225 137,229 138,230 138,234 139,235 139,239 145,239 146,240 152,240 153,241 158,241 159,242 163,242 164,243 165,243 166,242 166,240 167,239 167,236 168,235 168,232 169,231 169,229 170,228 170,225 171,224 171,222 172,221 172,218 173,217 173,215 174,214 174,211 175,210 175,208 176,207 176,205 177,204 177,202 178,201 178,199 179,198 179,196 180,195 180,193 181,192 181,190 182,189 182,187 183,186 183,184 184,183 184,181 185,180 185,179 186,178 186,176 187,175 187,174 188,173 188,171 189,170 189,169 190,168 190,166 191,165 191,164 187,164 186,163 177,163 176,162 170,162 169,161 164,161 163,160 158,160 157,159 152,159 151,158 147,158 146,157 142,157 141,156 137,156 136,155 132,155 131,154 128,154 127,153 123,153 122,152 119,152 118,151 114,151 113,150 110,150 109,149 106,149 105,148 101,148 100,147 97,147 96,146 93,146 92,145 88,145 87,144 84,144 83,143 79,143 78,142 75,142 74,141 71,141 70,140 66,140 65,139 62,139 61,138 58,138 57,137 53,137 52,136 48,136 47,135 42,135 41,134 36,134 35,133 Z" fill="#ff5454"/><path d="M 293,128 292,129 292,132 291,133 291,135 290,136 290,137 289,138 289,139 288,140 288,141 286,143 286,144 278,152 277,152 275,154 274,154 273,155 272,155 271,156 270,156 269,157 268,157 267,158 266,158 265,159 263,159 262,160 260,160 259,161 256,161 255,162 252,162 251,163 246,163 245,164 238,164 237,165 224,165 224,173 225,174 225,175 226,176 226,177 227,178 227,179 231,183 232,183 234,185 235,185 236,186 238,186 239,187 242,187 243,188 248,188 249,189 257,189 258,190 258,191 257,192 254,192 253,193 246,193 245,194 239,194 238,193 236,193 235,192 234,192 233,191 232,191 231,190 230,190 228,188 227,188 223,184 223,183 221,181 221,180 220,179 220,177 219,176 219,165 215,165 215,166 214,167 214,169 213,170 213,172 212,173 212,175 211,176 211,178 210,179 210,181 209,182 209,184 208,185 208,187 207,188 207,190 206,191 206,194 205,195 205,197 204,198 204,200 203,201 203,203 202,204 202,206 201,207 201,210 200,211 200,213 199,214 199,216 198,217 198,219 197,220 197,222 196,223 196,226 195,227 195,229 194,230 194,232 193,233 193,235 192,236 192,238 191,239 191,241 190,242 190,245 209,245 210,244 216,244 217,243 220,243 221,242 224,242 225,241 227,241 228,240 229,240 230,239 232,239 233,238 234,238 235,237 237,237 238,238 238,241 237,242 237,243 232,248 231,248 229,250 228,250 226,252 225,252 224,253 223,253 222,254 221,254 220,255 218,255 217,256 215,256 214,257 212,257 211,258 208,258 207,259 203,259 202,260 185,260 184,261 184,263 183,264 183,266 182,267 182,269 181,270 181,272 180,273 180,275 179,276 179,278 178,279 178,281 177,282 177,284 176,285 176,287 175,288 175,290 174,291 174,292 173,293 173,295 172,296 172,298 171,299 171,300 170,301 170,303 169,304 169,305 168,306 168,308 167,309 167,310 166,311 166,313 165,314 165,315 164,316 164,317 163,318 163,320 162,321 162,322 161,323 161,324 160,325 160,326 159,327 159,328 158,329 158,330 157,331 157,332 156,333 156,334 155,335 155,336 154,337 154,338 153,339 153,340 152,341 152,342 151,343 151,344 150,345 150,346 149,347 149,348 148,349 148,350 147,351 147,352 145,354 145,355 144,356 144,357 142,359 142,360 141,361 141,362 139,364 139,365 137,367 137,368 135,370 135,371 133,373 133,374 130,377 130,378 124,384 124,385 110,399 109,399 104,404 103,404 100,407 99,407 97,409 96,409 94,411 93,411 91,413 90,413 89,414 88,414 86,416 85,416 84,417 83,417 82,418 81,418 80,419 79,419 78,420 77,420 76,421 74,421 73,422 72,422 71,423 69,423 68,424 66,424 65,425 64,425 64,426 73,435 73,436 75,438 76,438 88,450 89,450 94,455 95,455 98,458 99,458 102,461 103,461 106,464 107,464 109,466 110,466 112,468 113,468 115,470 116,470 118,472 119,472 121,474 122,474 123,475 124,475 126,477 127,477 128,478 129,478 130,479 131,479 133,481 134,481 135,482 136,482 137,483 138,483 139,484 140,484 141,485 142,485 143,486 144,486 145,487 146,487 147,488 148,488 149,489 151,489 152,490 153,490 154,491 155,491 156,492 158,492 159,493 160,493 161,494 163,494 164,495 165,495 166,496 168,496 169,497 171,497 172,498 174,498 175,499 177,499 178,500 180,500 181,501 184,501 185,502 187,502 188,503 191,503 192,504 195,504 196,505 199,505 200,506 204,506 205,507 210,507 211,508 216,508 217,509 223,509 224,510 232,510 233,511 278,511 279,510 287,510 288,509 294,509 295,508 300,508 301,507 306,507 307,506 311,506 312,505 315,505 316,504 319,504 320,503 323,503 324,502 326,502 327,501 330,501 331,500 333,500 334,499 336,499 337,498 339,498 340,497 342,497 343,496 345,496 346,495 347,495 348,494 350,494 351,493 352,493 353,492 355,492 356,491 357,491 358,490 359,490 360,489 362,489 363,488 364,488 365,487 366,487 367,486 368,486 369,485 370,485 371,484 372,484 373,483 374,483 375,482 376,482 377,481 378,481 380,479 381,479 382,478 383,478 384,477 385,477 387,475 388,475 389,474 390,474 392,472 393,472 395,470 396,470 398,468 399,468 401,466 402,466 404,464 405,464 408,461 409,461 412,458 413,458 416,455 417,455 422,450 423,450 435,438 436,438 438,436 438,435 450,423 450,422 455,417 455,416 458,413 458,412 461,409 461,408 464,405 464,404 466,402 466,401 468,399 468,398 470,396 470,395 472,393 472,392 474,390 474,389 475,388 475,387 477,385 477,384 478,383 478,382 479,381 479,380 481,378 481,377 482,376 482,375 483,374 483,373 484,372 484,371 485,370 485,369 486,368 486,367 487,366 487,365 488,364 488,363 489,362 489,360 490,359 490,358 491,357 491,356 492,355 492,353 493,352 493,351 494,350 494,348 495,347 495,346 496,345 496,343 497,342 497,340 498,339 498,337 499,336 499,334 500,333 500,331 501,330 501,327 502,326 502,324 503,323 503,320 504,319 504,316 505,315 505,312 506,311 506,307 507,306 507,301 508,300 508,295 509,294 509,288 510,287 510,279 511,278 511,233 510,232 510,224 509,223 509,217 508,216 508,211 507,210 507,205 506,204 506,200 505,201 505,203 504,204 504,206 503,207 503,209 502,210 502,213 501,214 501,216 500,217 500,219 499,220 499,222 498,223 498,225 497,226 497,228 496,229 496,231 495,232 495,234 494,235 494,238 493,239 493,241 492,242 492,244 491,245 491,247 490,248 490,250 489,251 489,253 488,254 488,256 487,257 487,259 486,260 486,263 485,264 485,266 484,267 484,269 483,270 483,272 482,273 482,275 481,276 481,278 480,279 480,281 479,282 479,284 478,285 478,287 477,288 477,289 476,290 476,292 475,293 475,295 474,296 474,298 473,299 473,300 472,301 472,303 471,304 471,305 470,306 470,308 469,309 469,310 468,311 468,313 467,314 467,315 466,316 466,317 465,318 465,320 464,321 464,322 463,323 463,324 462,325 462,326 461,327 461,329 460,330 460,331 459,332 459,333 458,334 458,335 457,336 457,337 456,338 456,339 455,340 455,341 454,342 454,343 453,344 453,345 451,347 451,348 450,349 450,350 449,351 449,352 448,353 448,354 446,356 446,357 445,358 445,359 443,361 443,362 441,364 441,365 439,367 439,368 437,370 437,371 434,374 434,375 431,378 431,379 427,383 427,384 410,401 409,401 405,405 404,405 401,408 400,408 398,410 397,410 395,412 394,412 393,413 392,413 390,415 389,415 388,416 387,416 386,417 385,417 384,418 383,418 382,419 381,419 380,420 379,420 378,421 376,421 375,422 374,422 373,423 371,423 370,424 368,424 367,425 365,425 364,426 362,426 361,427 358,427 357,428 353,428 352,429 347,429 346,430 339,430 338,431 315,431 314,430 307,430 306,429 302,429 301,428 297,428 296,427 294,427 293,426 291,426 290,425 288,425 287,424 285,424 284,423 282,423 281,422 280,422 279,421 278,421 277,420 276,420 275,419 274,419 273,418 272,418 271,417 270,417 269,416 268,416 266,414 265,414 263,412 262,412 259,409 258,409 254,405 253,405 243,395 243,394 239,390 239,389 237,387 237,386 235,384 235,383 234,382 234,381 233,380 233,379 232,378 232,377 231,376 231,375 230,374 230,373 229,372 229,370 228,369 228,367 227,366 227,364 226,363 226,361 225,360 225,357 224,356 224,353 223,352 223,348 222,347 222,332 223,331 223,329 228,324 235,324 236,325 236,326 237,327 237,330 238,331 238,333 239,334 239,337 240,338 240,340 241,341 241,343 242,344 242,346 243,347 243,349 244,350 244,352 245,353 245,354 246,355 246,356 247,357 247,358 248,359 248,360 249,361 249,362 252,365 252,366 255,369 255,370 265,380 266,380 269,383 270,383 272,385 273,385 274,386 275,386 276,387 277,387 278,388 279,388 280,389 281,389 282,390 284,390 285,391 287,391 288,392 291,392 292,393 296,393 297,394 304,394 305,395 315,395 316,394 321,394 322,393 325,393 326,392 328,392 329,391 332,391 333,390 338,390 339,391 339,392 338,393 338,394 336,396 335,396 334,397 333,397 332,398 329,398 328,399 323,399 322,400 291,400 290,399 285,399 284,398 280,398 279,397 277,397 276,396 274,396 273,395 271,395 270,394 269,394 268,393 267,393 266,392 265,392 264,391 263,391 262,390 261,390 259,388 258,388 249,379 250,380 250,381 251,382 251,383 253,385 253,386 255,388 255,389 257,391 257,392 262,397 262,398 270,406 271,406 275,410 276,410 278,412 279,412 281,414 282,414 283,415 284,415 285,416 286,416 287,417 288,417 289,418 290,418 291,419 292,419 293,420 295,420 296,421 298,421 299,422 302,422 303,423 307,423 308,424 313,424 314,425 332,425 333,424 334,424 335,423 337,423 338,422 341,422 342,421 343,421 344,420 345,420 346,419 347,419 348,418 349,418 351,416 352,416 355,413 356,413 369,400 369,399 373,395 373,394 377,390 377,389 379,387 379,386 382,383 382,382 384,380 384,379 386,377 386,376 388,374 388,373 390,371 390,370 391,369 391,368 393,366 393,365 395,363 395,362 396,361 396,360 398,358 398,357 399,356 399,355 401,353 401,352 402,351 402,350 403,349 403,348 405,346 405,345 406,344 406,343 407,342 407,341 408,340 408,339 409,338 409,337 410,336 410,335 411,334 411,333 412,332 412,331 413,330 413,329 414,328 414,327 415,326 415,325 416,324 416,323 417,322 417,321 418,320 418,318 419,317 419,316 420,315 420,314 421,313 421,311 422,310 422,309 423,308 423,307 424,306 424,304 425,303 425,302 426,301 426,300 427,299 427,297 428,296 428,294 429,293 429,292 430,291 430,289 431,288 431,286 432,285 432,283 433,282 433,280 434,279 434,277 435,276 435,274 436,273 436,271 437,270 437,267 438,266 438,264 439,263 439,261 438,260 438,257 437,256 437,255 436,254 436,253 435,252 435,251 430,246 429,246 428,245 427,245 426,244 424,244 423,243 414,243 413,242 413,239 414,238 414,236 415,235 415,234 417,232 417,231 422,226 423,226 424,225 425,225 426,224 428,224 429,223 434,223 435,224 436,224 437,225 438,225 442,229 442,230 443,231 443,233 444,234 444,237 444,236 445,235 445,231 446,230 446,226 447,225 447,219 448,218 448,211 449,210 449,202 450,201 450,186 451,185 451,159 449,157 446,157 445,156 441,156 440,155 437,155 436,154 432,154 431,153 428,153 427,152 423,152 422,151 419,151 418,150 414,150 413,149 409,149 408,148 405,148 404,147 400,147 399,146 396,146 395,145 391,145 390,144 387,144 386,143 382,143 381,142 378,142 377,141 373,141 372,140 369,140 368,139 364,139 363,138 360,138 359,137 355,137 354,136 349,136 348,135 344,135 343,134 338,134 337,133 332,133 331,132 325,132 324,131 318,131 317,130 309,130 308,129 294,129 Z" fill="#ff5454"/><path d="M 283,128 282,129 275,129 273,131 271,131 270,130 264,130 263,131 260,131 259,132 256,132 255,133 253,133 252,134 250,134 249,135 248,135 247,136 246,136 245,137 244,137 243,138 242,138 240,140 239,140 237,142 236,142 230,148 230,149 229,150 254,150 255,149 261,149 262,148 266,148 267,147 269,147 270,146 272,146 273,145 274,145 275,144 276,144 277,143 278,143 282,139 282,138 284,136 284,135 285,134 285,133 286,132 286,130 287,129 287,128 Z" fill="#ff5454"/><path d="M 250,117 249,118 245,118 244,119 242,119 240,121 239,121 231,129 231,130 229,132 229,133 228,134 228,135 227,136 227,137 226,138 226,139 225,140 225,141 224,142 224,143 223,144 223,145 222,146 222,147 221,148 221,149 220,150 224,150 225,149 225,148 227,146 227,145 231,141 231,140 240,131 241,131 245,127 246,127 248,125 249,125 251,123 252,123 253,122 254,122 255,121 256,121 257,120 258,120 258,119 256,119 255,118 252,118 251,117 Z" fill="#ff5454"/><path d="M 233,0 232,1 224,1 223,2 217,2 216,3 211,3 210,4 205,4 204,5 200,5 199,6 196,6 195,7 192,7 191,8 188,8 187,9 185,9 184,10 181,10 180,11 178,11 177,12 175,12 174,13 172,13 171,14 169,14 168,15 166,15 165,16 164,16 163,17 161,17 160,18 159,18 158,19 156,19 155,20 154,20 153,21 152,21 151,22 149,22 148,23 147,23 146,24 145,24 144,25 143,25 142,26 141,26 140,27 139,27 138,28 137,28 136,29 135,29 134,30 133,30 131,32 130,32 129,33 128,33 127,34 126,34 124,36 123,36 122,37 121,37 119,39 118,39 116,41 115,41 113,43 112,43 110,45 109,45 107,47 106,47 103,50 102,50 99,53 98,53 95,56 94,56 89,61 88,61 76,73 75,73 73,75 73,76 61,88 61,89 56,94 56,95 53,98 53,99 50,102 50,103 47,106 47,107 45,109 45,110 43,112 43,113 42,114 46,114 47,115 52,115 53,116 57,116 58,117 61,117 62,118 65,118 66,119 69,119 70,120 73,120 74,121 77,121 78,122 81,122 82,123 86,123 87,124 90,124 91,125 95,125 96,126 99,126 100,127 103,127 104,128 108,128 109,129 113,129 114,130 117,130 118,131 122,131 123,132 126,132 127,133 131,133 132,134 136,134 137,135 140,135 141,136 145,136 146,137 150,137 151,138 154,138 155,139 159,139 160,140 164,140 165,141 169,141 170,142 173,142 174,143 178,143 179,144 183,144 184,145 188,145 189,146 193,146 194,147 197,147 198,148 200,148 200,147 201,146 201,145 203,143 203,142 204,141 204,140 207,137 207,136 219,124 220,124 223,121 224,121 226,119 227,119 229,117 230,117 231,116 232,116 233,115 235,115 236,114 237,114 238,113 240,113 241,112 244,112 245,111 259,111 260,112 262,112 263,113 264,113 265,114 266,114 267,115 271,115 272,114 275,114 276,113 279,113 280,112 285,112 286,111 285,110 285,109 282,106 282,105 281,104 281,103 283,101 286,101 287,102 288,102 290,104 290,105 291,106 291,107 292,108 292,111 295,111 296,110 318,110 319,111 331,111 332,112 339,112 340,113 345,113 346,114 350,114 351,115 354,115 355,116 359,116 360,117 363,117 364,118 367,118 368,119 371,119 372,120 376,120 377,121 380,121 381,122 384,122 385,123 388,123 389,124 392,124 393,125 397,125 398,126 401,126 402,127 405,127 406,128 409,128 410,129 414,129 415,130 418,130 419,131 422,131 423,132 426,132 427,133 431,133 432,134 435,134 436,135 439,135 440,136 443,136 444,137 448,137 449,138 448,137 448,132 447,131 447,128 446,127 446,124 445,123 445,121 444,120 444,118 443,117 443,115 442,114 442,112 441,111 441,110 440,109 440,108 439,107 439,106 438,105 438,104 437,103 437,102 435,100 435,99 433,97 433,96 431,94 431,93 427,89 427,88 426,87 426,83 428,81 433,81 435,83 436,83 441,88 441,89 444,92 444,93 446,95 446,96 447,97 447,98 448,99 448,100 449,101 449,102 450,103 450,104 451,105 451,106 452,107 452,109 453,110 453,112 454,113 454,115 455,116 455,119 456,120 456,122 457,123 457,127 458,128 458,132 459,133 459,138 460,139 460,140 461,140 462,141 466,141 467,142 470,142 471,143 476,143 477,144 481,144 482,145 487,145 486,144 486,143 485,142 485,141 484,140 484,139 483,138 483,137 482,136 482,135 481,134 481,133 479,131 479,130 478,129 478,128 477,127 477,126 475,124 475,123 474,122 474,121 472,119 472,118 470,116 470,115 468,113 468,112 466,110 466,109 464,107 464,106 461,103 461,102 458,99 458,98 455,95 455,94 450,89 450,88 438,76 438,75 436,73 435,73 423,61 422,61 417,56 416,56 413,53 412,53 409,50 408,50 405,47 404,47 402,45 401,45 399,43 398,43 396,41 395,41 393,39 392,39 390,37 389,37 388,36 387,36 385,34 384,34 383,33 382,33 381,32 380,32 378,30 377,30 376,29 375,29 374,28 373,28 372,27 371,27 370,26 369,26 368,25 367,25 366,24 365,24 364,23 363,23 362,22 360,22 359,21 358,21 357,20 356,20 355,19 353,19 352,18 351,18 350,17 348,17 347,16 346,16 345,15 343,15 342,14 340,14 339,13 337,13 336,12 334,12 333,11 331,11 330,10 327,10 326,9 324,9 323,8 320,8 319,7 316,7 315,6 312,6 311,5 307,5 306,4 301,4 300,3 295,3 294,2 288,2 287,1 279,1 278,0 Z" fill="#ff5454"/><path d="M 60,426 59,427 56,427 55,428 52,428 51,429 47,429 46,430 39,430 38,431 10,431 9,430 4,430 3,429 0,429 0,511 232,511 224,511 223,510 216,510 215,509 210,509 209,508 205,508 204,507 200,507 199,506 196,506 195,505 192,505 191,504 188,504 187,503 185,503 184,502 181,502 180,501 178,501 177,500 175,500 174,499 172,499 171,498 169,498 168,497 166,497 165,496 164,496 163,495 161,495 160,494 159,494 158,493 156,493 155,492 154,492 153,491 152,491 151,490 149,490 148,489 147,489 146,488 145,488 144,487 143,487 142,486 141,486 140,485 139,485 138,484 137,484 136,483 135,483 134,482 133,482 131,480 130,480 129,479 128,479 127,478 126,478 124,476 123,476 122,475 121,475 119,473 118,473 116,471 115,471 114,470 113,470 110,467 109,467 107,465 106,465 103,462 102,462 99,459 98,459 95,456 94,456 89,451 88,451 77,440 76,440 71,435 71,434 63,426 Z" fill="#000000"/><path d="M 511,279 511,287 510,288 510,295 509,296 509,301 508,302 508,306 507,307 507,311 506,312 506,315 505,316 505,319 504,320 504,323 503,324 503,326 502,327 502,330 501,331 501,333 500,334 500,336 499,337 499,339 498,340 498,342 497,343 497,345 496,346 496,347 495,348 495,350 494,351 494,352 493,353 493,355 492,356 492,357 491,358 491,359 490,360 490,362 489,363 489,364 488,365 488,366 487,367 487,368 486,369 486,370 485,371 485,372 484,373 484,374 483,375 483,376 482,377 482,378 480,380 480,381 479,382 479,383 478,384 478,385 476,387 476,388 475,389 475,390 473,392 473,393 471,395 471,396 470,397 470,398 467,401 467,402 465,404 465,405 462,408 462,409 459,412 459,413 456,416 456,417 451,422 451,423 440,434 440,435 435,440 434,440 423,451 422,451 417,456 416,456 413,459 412,459 409,462 408,462 405,465 404,465 402,467 401,467 398,470 397,470 396,471 395,471 393,473 392,473 390,475 389,475 388,476 387,476 385,478 384,478 383,479 382,479 381,480 380,480 378,482 377,482 376,483 375,483 374,484 373,484 372,485 371,485 370,486 369,486 368,487 367,487 366,488 365,488 364,489 363,489 362,490 360,490 359,491 358,491 357,492 356,492 355,493 353,493 352,494 351,494 350,495 348,495 347,496 346,496 345,497 343,497 342,498 340,498 339,499 337,499 336,500 334,500 333,501 331,501 330,502 327,502 326,503 324,503 323,504 320,504 319,505 316,505 315,506 312,506 311,507 307,507 306,508 302,508 301,509 296,509 295,510 288,510 287,511 279,511 511,511 Z" fill="#000000"/><path d="M 0,279 0,394 7,394 8,395 11,395 12,394 18,394 19,393 22,393 23,392 25,392 26,391 29,391 30,390 33,390 34,389 35,389 37,391 37,393 36,394 36,395 35,396 34,396 33,397 32,397 31,398 28,398 27,399 23,399 22,400 0,400 0,422 1,422 2,423 6,423 7,424 14,424 15,425 33,425 34,424 41,424 42,423 47,423 48,422 51,422 52,421 55,421 56,420 58,420 55,417 55,416 52,413 52,412 49,409 49,408 46,405 46,404 44,402 44,401 41,398 41,397 40,396 40,395 38,393 38,392 36,390 36,389 35,388 35,387 33,385 33,384 32,383 32,382 31,381 31,380 29,378 29,377 28,376 28,375 27,374 27,373 26,372 26,371 25,370 25,369 24,368 24,367 23,366 23,365 22,364 22,363 21,362 21,360 20,359 20,358 19,357 19,356 18,355 18,353 17,352 17,351 16,350 16,348 15,347 15,346 14,345 14,343 13,342 13,340 12,339 12,337 11,336 11,334 10,333 10,331 9,330 9,327 8,326 8,324 7,323 7,320 6,319 6,316 5,315 5,312 4,311 4,307 3,306 3,302 2,301 2,296 1,295 1,288 0,287 Z" fill="#000000"/><path d="M 511,183 511,185 510,186 510,189 509,190 509,192 508,193 508,195 507,196 507,198 506,199 507,200 507,204 508,205 508,209 509,210 509,215 510,216 510,223 511,224 511,232 Z" fill="#000000"/><path d="M 0,129 0,232 0,224 1,223 1,216 2,215 2,210 3,209 3,205 4,204 4,200 5,199 5,196 6,195 6,192 7,191 7,188 8,187 8,185 9,184 9,181 10,180 10,178 11,177 11,175 12,174 12,172 13,171 13,169 14,168 14,166 15,165 15,164 16,163 16,161 17,160 17,159 18,158 18,156 19,155 19,154 20,153 20,152 21,151 21,149 22,148 22,147 23,146 23,145 24,144 24,143 25,142 25,141 26,140 26,139 27,138 27,137 28,136 28,135 29,134 29,133 28,133 27,132 22,132 21,131 14,131 13,130 4,130 3,129 Z" fill="#000000"/><path d="M 279,0 287,0 288,1 295,1 296,2 301,2 302,3 306,3 307,4 311,4 312,5 315,5 316,6 319,6 320,7 323,7 324,8 326,8 327,9 330,9 331,10 333,10 334,11 336,11 337,12 339,12 340,13 342,13 343,14 345,14 346,15 347,15 348,16 350,16 351,17 352,17 353,18 355,18 356,19 357,19 358,20 359,20 360,21 362,21 363,22 364,22 365,23 366,23 367,24 368,24 369,25 370,25 371,26 372,26 373,27 374,27 375,28 376,28 377,29 378,29 380,31 381,31 382,32 383,32 384,33 385,33 387,35 388,35 389,36 390,36 392,38 393,38 395,40 396,40 397,41 398,41 401,44 402,44 404,46 405,46 408,49 409,49 412,52 413,52 416,55 417,55 422,60 423,60 434,71 435,71 440,76 440,77 451,88 451,89 456,94 456,95 459,98 459,99 462,102 462,103 465,106 465,107 467,109 467,110 470,113 470,114 471,115 471,116 473,118 473,119 475,121 475,122 476,123 476,124 478,126 478,127 479,128 479,129 480,130 480,131 482,133 482,134 483,135 483,136 484,137 484,138 485,139 485,140 486,141 486,142 487,143 487,144 488,145 488,146 493,146 494,147 500,147 501,148 502,147 502,146 503,145 503,144 505,142 505,141 506,140 506,139 508,137 508,136 511,133 511,0 Z" fill="#000000"/><path d="M 0,0 0,110 17,110 18,111 27,111 28,112 35,112 36,113 41,113 44,110 44,109 46,107 46,106 49,103 49,102 52,99 52,98 55,95 55,94 60,89 60,88 71,77 71,76 76,71 77,71 88,60 89,60 94,55 95,55 98,52 99,52 102,49 103,49 106,46 107,46 109,44 110,44 113,41 114,41 115,40 116,40 118,38 119,38 121,36 122,36 123,35 124,35 126,33 127,33 128,32 129,32 130,31 131,31 133,29 134,29 135,28 136,28 137,27 138,27 139,26 140,26 141,25 142,25 143,24 144,24 145,23 146,23 147,22 148,22 149,21 151,21 152,20 153,20 154,19 155,19 156,18 158,18 159,17 160,17 161,16 163,16 164,15 165,15 166,14 168,14 169,13 171,13 172,12 174,12 175,11 177,11 178,10 180,10 181,9 184,9 185,8 187,8 188,7 191,7 192,6 195,6 196,5 199,5 200,4 204,4 205,3 209,3 210,2 215,2 216,1 223,1 224,0 232,0 Z" fill="#000000"/></svg>