<svg xmlns="http://www.w3.org/2000/svg" width="32" height="32" viewBox="0 0 32 32">
              <g class="nc-icon-wrapper">
                <rect x="2" y="7" width="28" height="18" rx="3" ry="3" fill="#fff" stroke-width="0"></rect>
                <path d="m27,7H5c-1.657,0-3,1.343-3,3v12c0,1.657,1.343,3,3,3h22c1.657,0,3-1.343,3-3v-12c0-1.657-1.343-3-3-3Zm2,15c0,1.103-.897,2-2,2H5c-1.103,0-2-.897-2-2v-12c0-1.103.897-2,2-2h22c1.103,0,2,.897,2,2v12Z" stroke-width="0" opacity=".15"></path>
                <path d="m27,8H5c-1.105,0-2,.895-2,2v1c0-1.105.895-2,2-2h22c1.105,0,2,.895,2,2v-1c0-1.105-.895-2-2-2Z" fill="#fff" opacity=".2" stroke-width="0"></path>
                <path d="m5.03,12.792c-.069,0-.128.05-.139.119l-.801,5.082c-.011.071.037.138.108.149.007.001.013.002.02.002h.95c.069,0,.128-.05.139-.119l.235-1.492c.011-.068.07-.119.139-.119h.864c1.01,0,1.866-.737,2.023-1.735.158-1.007-.629-1.884-1.743-1.886h-1.796Zm.924,1.134h.691c.569,0,.754.336.696.707-.059.372-.346.646-.897.646h-.704l.213-1.353Zm4.548.345c-.24,0-.516.05-.826.179-.711.296-1.053.909-1.198,1.355,0,0-.462,1.362.581,2.111,0,0,.967.721,2.056-.044l-.019.119c-.011.071.037.138.108.149.007.001.013.002.02.002h.902c.069,0,.128-.05.139-.119l.549-3.48c.011-.071-.037-.138-.108-.149-.007-.001-.013-.002-.02-.002h-.902c-.069,0-.128.05-.139.119l-.029.187s-.394-.43-1.114-.428h0Zm.029,1.099c.104,0,.198.014.283.042.389.125.61.499.546.904-.079.499-.488.867-1.013.867-.103,0-.198-.014-.283-.042-.389-.125-.611-.499-.547-.904.079-.499.489-.867,1.014-.867h0Z" fill="#003087" stroke-width="0"></path>
                <path d="m18.022,12.792c-.069,0-.128.05-.139.119l-.801,5.082c-.011.071.037.138.108.149.007.001.013.002.02.002h.95c.069,0,.128-.05.139-.119l.235-1.492c.011-.068.07-.119.139-.119h.864c1.01,0,1.866-.737,2.023-1.735.158-1.007-.628-1.884-1.743-1.886h-1.796Zm.924,1.134h.691c.569,0,.754.336.696.707-.059.372-.346.646-.897.646h-.704l.213-1.353Zm4.548.345c-.24,0-.516.05-.826.179-.711.296-1.053.909-1.198,1.355,0,0-.461,1.362.581,2.111,0,0,.967.721,2.056-.044l-.019.119c-.011.071.037.138.108.149.007.001.013.002.02.002h.902c.069,0,.128-.05.139-.119l.549-3.48c.011-.071-.037-.138-.108-.149-.007-.001-.014-.002-.02-.002h-.902c-.069,0-.128.05-.139.119l-.029.187s-.394-.43-1.114-.428h0Zm.029,1.099c.104,0,.198.014.283.042.389.125.61.499.546.904-.079.499-.488.867-1.013.867-.103,0-.198-.014-.283-.042-.389-.125-.611-.499-.547-.904.079-.499.489-.867,1.014-.867h0Z" fill="#0070e0" stroke-width="0"></path>
                <path d="m13.243,14.394c-.072,0-.122.07-.101.138l.989,3.069-.894,1.446c-.043.07.007.161.09.161h1.057c.061,0,.118-.032.15-.085l2.762-4.569c.042-.07-.008-.16-.09-.16h-1.057c-.062,0-.12.033-.151.086l-1.087,1.836-.552-1.822c-.018-.059-.073-.1-.135-.1h-.981Z" fill="#003087" stroke-width="0"></path>
                <path d="m26.831,12.792c-.069,0-.128.05-.139.119l-.802,5.082c-.011.071.037.138.108.149.007.001.014.002.02.002h.95c.069,0,.128-.05.139-.119l.801-5.082c.011-.071-.037-.138-.108-.149-.007-.001-.013-.002-.02-.002h-.95Z" fill="#0070e0" stroke-width="0"></path>
              </g>
            </svg>
